<?xml version="1.0" encoding="UTF-8" standalone="no"?>
<svg
   xmlns:dc="http://purl.org/dc/elements/1.1/"
   xmlns:cc="http://creativecommons.org/ns#"
   xmlns:rdf="http://www.w3.org/1999/02/22-rdf-syntax-ns#"
   xmlns:svg="http://www.w3.org/2000/svg"
   xmlns="http://www.w3.org/2000/svg"
   xmlns:sodipodi="http://sodipodi.sourceforge.net/DTD/sodipodi-0.dtd"
   xmlns:inkscape="http://www.inkscape.org/namespaces/inkscape"
   version="1.1"
   id="svg2"
   xml:space="preserve"
   width="793.70667"
   height="1122.52"
   viewBox="0 0 793.70667 1122.52"
   sodipodi:docname="Northside Squiggle BW.eps"><metadata
     id="metadata8"><rdf:RDF><cc:Work
         rdf:about=""><dc:format>image/svg+xml</dc:format><dc:type
           rdf:resource="http://purl.org/dc/dcmitype/StillImage" /></cc:Work></rdf:RDF></metadata><defs
     id="defs6" /><sodipodi:namedview
     pagecolor="#ffffff"
     bordercolor="#666666"
     borderopacity="1"
     objecttolerance="10"
     gridtolerance="10"
     guidetolerance="10"
     inkscape:pageopacity="0"
     inkscape:pageshadow="2"
     inkscape:window-width="640"
     inkscape:window-height="480"
     id="namedview4" /><g
     id="g10"
     inkscape:groupmode="layer"
     inkscape:label="ink_ext_XXXXXX"
     transform="matrix(1.3333333,0,0,-1.3333333,0,1122.52)"><g
       id="g12"
       transform="scale(0.1)"><path
         d="m 1497.89,2309.43 c 988.27,-514.78 2438.57,-746.29 2663.13,-488.01 1186.09,1364.15 1433.22,2451.3 1426.45,2623.63 -6.78,172.32 -137.6,884.96 -752.45,1457.55 C 4220.18,6475.18 3485.01,7052.99 2846.01,6858.68 2207.01,6664.35 732.602,5386.73 207.461,4613.81 -317.68,3840.88 509.617,2824.21 1497.89,2309.43 Z"
         style="fill:none;stroke:#918f90;stroke-width:13;stroke-linecap:butt;stroke-linejoin:miter;stroke-miterlimit:4;stroke-dasharray:none;stroke-opacity:1"
         id="path14" /><path
         d="M 5069.57,2445.11 C 4203.66,2095.08 2269.43,1852.8 1631.27,2045.98 993.098,2239.16 705.105,3126.32 514,3942.41 c -191.102,816.09 97.207,1479.92 187.539,1626.66 90.332,146.73 900.641,911.68 2643.921,1385.66 330.05,89.75 1403.98,-906.73 1936.98,-1881.96 533,-975.24 653.04,-2277.63 -212.87,-2627.66 z"
         style="fill:none;stroke:#918f90;stroke-width:13;stroke-linecap:butt;stroke-linejoin:miter;stroke-miterlimit:4;stroke-dasharray:none;stroke-opacity:1"
         id="path16" /><path
         d="M 5249.71,3390.59 C 5469,4481.81 5288.29,5937.1 4978.2,6080.41 3340.39,6837.4 2229.01,6771.22 2065.62,6716.67 1902.21,6662.12 1255.02,6337.95 876.57,5588.69 498.125,4839.44 148.082,3973.36 511.926,3414.78 875.762,2856.22 2510.64,1798.64 3397.84,1510.59 c 887.17,-288.03 1632.57,788.78 1851.87,1880 z"
         style="fill:none;stroke:#918f90;stroke-width:13;stroke-linecap:butt;stroke-linejoin:miter;stroke-miterlimit:4;stroke-dasharray:none;stroke-opacity:1"
         id="path18" /><path
         d="M 5708.49,3725.77 C 5132.87,2989.3 3576.33,1812.24 2925.73,1660.78 2275.12,1509.32 1580.1,2134.86 1004.79,2747.19 429.488,3359.51 346.523,4079.43 351.27,4251.85 c 4.738,172.44 323.91,1241 1598.53,2523.59 241.31,242.83 1673.06,-84.63 2624.85,-664.08 951.79,-579.46 1709.44,-1649.11 1133.84,-2385.59 z"
         style="fill:none;stroke:#918f90;stroke-width:13;stroke-linecap:butt;stroke-linejoin:miter;stroke-miterlimit:4;stroke-dasharray:none;stroke-opacity:1"
         id="path20" /><path
         d="M 539.609,4065.57 C 805.781,2988.21 1588.77,1752.97 1930.28,1755.83 c 1803.79,15.14 2780.95,548.23 2905.54,667.02 124.58,118.79 572.02,686.79 595.4,1523.6 23.36,836.81 -28.68,1766.86 -595.59,2115.53 C 4268.71,6410.64 2339.61,6667.81 1414.46,6549.6 489.313,6431.4 273.441,5142.92 539.609,4065.57 Z"
         style="fill:none;stroke:#918f90;stroke-width:13;stroke-linecap:butt;stroke-linejoin:miter;stroke-miterlimit:4;stroke-dasharray:none;stroke-opacity:1"
         id="path22" /><path
         d="M 3722.76,6173.13 C 4438.82,5944.09 4941.84,5025.93 4941.84,3899.89 4965.51,3407.15 4527.93,2899.49 4005.17,2563.48 2826.54,1991.82 1323.44,2387.59 950.004,3703.95 c -226.766,799.37 -181.418,1366.3 842.356,2118.88 574.4,422.24 1271.36,561.09 1930.4,350.3 z"
         style="fill:none;stroke:#918f90;stroke-width:13;stroke-linecap:butt;stroke-linejoin:miter;stroke-miterlimit:4;stroke-dasharray:none;stroke-opacity:1"
         id="path24" /></g></g></svg>
